<?xml version="1.0" encoding="UTF-8" standalone="no"?>
<!DOCTYPE svg PUBLIC "-//W3C//DTD SVG 1.1//EN"
 "http://www.w3.org/Graphics/SVG/1.1/DTD/svg11.dtd">
<!-- Generated by graphviz version 2.25.20091111.0545 (20091111.0545)
 -->
<!-- Title: models_diagram Pages: 1 -->
<svg width="555pt" height="220pt"
 viewBox="0.00 0.00 555.00 220.00" xmlns="http://www.w3.org/2000/svg" xmlns:xlink="http://www.w3.org/1999/xlink">
<g id="graph1" class="graph" transform="scale(1 1) rotate(0) translate(4 216)">
<title>models_diagram</title>
<polygon fill="white" stroke="white" points="-4,5 -4,-216 552,-216 552,5 -4,5"/>
<!-- _diagram_info -->
<g id="node1" class="node"><title>_diagram_info</title>
<text text-anchor="start" x="-0.5" y="-183.4" font-family="Times,serif" font-size="14.00">Models diagram</text>
<text text-anchor="start" x="-0.5" y="-169.4" font-family="Times,serif" font-size="14.00">Date: Aug 27 2011 &#45; 21:22</text>
<text text-anchor="start" x="-0.5" y="-155.4" font-family="Times,serif" font-size="14.00">Migration version: 20110824191102</text>
<text text-anchor="start" x="-0.5" y="-141.4" font-family="Times,serif" font-size="14.00">Generated by RailRoad 0.5.0</text>
</g>
<!-- Project -->
<g id="node2" class="node"><title>Project</title>
<polyline fill="none" stroke="black" points="249,-1 363,-1 "/>
<path fill="none" stroke="black" d="M363,-1C369,-1 375,-7 375,-13"/>
<polyline fill="none" stroke="black" points="375,-13 375,-75 "/>
<path fill="none" stroke="black" d="M375,-75C375,-81 369,-87 363,-87"/>
<polyline fill="none" stroke="black" points="363,-87 249,-87 "/>
<path fill="none" stroke="black" d="M249,-87C243,-87 237,-81 237,-75"/>
<polyline fill="none" stroke="black" points="237,-75 237,-13 "/>
<path fill="none" stroke="black" d="M237,-13C237,-7 243,-1 249,-1"/>
<text text-anchor="middle" x="306" y="-70.4" font-family="Times,serif" font-size="14.00">Project</text>
<polyline fill="none" stroke="black" points="237,-65 375,-65 "/>
<text text-anchor="start" x="245" y="-48.4" font-family="Times,serif" font-size="14.00">name :string</text>
<text text-anchor="start" x="245" y="-34.4" font-family="Times,serif" font-size="14.00">created_at :datetime</text>
<text text-anchor="start" x="245" y="-20.4" font-family="Times,serif" font-size="14.00">updated_at :datetime</text>
<text text-anchor="start" x="245" y="-6.4" font-family="Times,serif" font-size="14.00">lock_version :integer</text>
</g>
<!-- ProjectSchema -->
<g id="node3" class="node"><title>ProjectSchema</title>
<polyline fill="none" stroke="black" points="254,-125 368,-125 "/>
<path fill="none" stroke="black" d="M368,-125C374,-125 380,-131 380,-137"/>
<polyline fill="none" stroke="black" points="380,-137 380,-199 "/>
<path fill="none" stroke="black" d="M380,-199C380,-205 374,-211 368,-211"/>
<polyline fill="none" stroke="black" points="368,-211 254,-211 "/>
<path fill="none" stroke="black" d="M254,-211C248,-211 242,-205 242,-199"/>
<polyline fill="none" stroke="black" points="242,-199 242,-137 "/>
<path fill="none" stroke="black" d="M242,-137C242,-131 248,-125 254,-125"/>
<text text-anchor="middle" x="311" y="-194.4" font-family="Times,serif" font-size="14.00">ProjectSchema</text>
<polyline fill="none" stroke="black" points="242,-189 380,-189 "/>
<text text-anchor="start" x="250" y="-172.4" font-family="Times,serif" font-size="14.00">name :string</text>
<text text-anchor="start" x="250" y="-158.4" font-family="Times,serif" font-size="14.00">created_at :datetime</text>
<text text-anchor="start" x="250" y="-144.4" font-family="Times,serif" font-size="14.00">updated_at :datetime</text>
<text text-anchor="start" x="250" y="-130.4" font-family="Times,serif" font-size="14.00">lock_version :integer</text>
</g>
<!-- ProjectSchema&#45;&gt;Project -->
<g id="edge2" class="edge"><title>ProjectSchema&#45;&gt;Project</title>
<path fill="none" stroke="black" d="M308.855,-114.796C308.595,-108.358 308.33,-101.791 308.072,-95.3805"/>
<polygon fill="black" stroke="black" points="308.862,-114.987 304.769,-125.16 309.064,-119.983 309.265,-124.979 309.265,-124.979 309.265,-124.979 309.064,-119.983 313.762,-124.797 308.862,-114.987 308.862,-114.987"/>
<ellipse fill="black" stroke="black" cx="307.91" cy="-91.3619" rx="4" ry="4"/>
</g>
<!-- ProjectSchemaQuestion -->
<g id="node4" class="node"><title>ProjectSchemaQuestion</title>
<polyline fill="none" stroke="black" points="405,-8 535,-8 "/>
<path fill="none" stroke="black" d="M535,-8C541,-8 547,-14 547,-20"/>
<polyline fill="none" stroke="black" points="547,-20 547,-68 "/>
<path fill="none" stroke="black" d="M547,-68C547,-74 541,-80 535,-80"/>
<polyline fill="none" stroke="black" points="535,-80 405,-80 "/>
<path fill="none" stroke="black" d="M405,-80C399,-80 393,-74 393,-68"/>
<polyline fill="none" stroke="black" points="393,-68 393,-20 "/>
<path fill="none" stroke="black" d="M393,-20C393,-14 399,-8 405,-8"/>
<text text-anchor="middle" x="470" y="-63.4" font-family="Times,serif" font-size="14.00">ProjectSchemaQuestion</text>
<polyline fill="none" stroke="black" points="393,-58 547,-58 "/>
<text text-anchor="start" x="401" y="-41.4" font-family="Times,serif" font-size="14.00">position :integer</text>
<text text-anchor="start" x="401" y="-27.4" font-family="Times,serif" font-size="14.00">created_at :datetime</text>
<text text-anchor="start" x="401" y="-13.4" font-family="Times,serif" font-size="14.00">updated_at :datetime</text>
</g>
<!-- ProjectSchema&#45;&gt;ProjectSchemaQuestion -->
<g id="edge4" class="edge"><title>ProjectSchema&#45;&gt;ProjectSchemaQuestion</title>
<path fill="none" stroke="black" d="M374.178,-118.729C388.368,-107.663 403.283,-96.0311 417.007,-85.3276"/>
<polygon fill="black" stroke="black" points="374.05,-118.829 363.397,-121.43 370.107,-121.904 366.164,-124.979 366.164,-124.979 366.164,-124.979 370.107,-121.904 368.932,-128.527 374.05,-118.829 374.05,-118.829"/>
<ellipse fill="black" stroke="black" cx="420.487" cy="-82.6142" rx="4.00002" ry="4.00002"/>
</g>
<!-- Question -->
<g id="node5" class="node"><title>Question</title>
<polyline fill="none" stroke="black" points="414.5,-132 525.5,-132 "/>
<path fill="none" stroke="black" d="M525.5,-132C531.5,-132 537.5,-138 537.5,-144"/>
<polyline fill="none" stroke="black" points="537.5,-144 537.5,-192 "/>
<path fill="none" stroke="black" d="M537.5,-192C537.5,-198 531.5,-204 525.5,-204"/>
<polyline fill="none" stroke="black" points="525.5,-204 414.5,-204 "/>
<path fill="none" stroke="black" d="M414.5,-204C408.5,-204 402.5,-198 402.5,-192"/>
<polyline fill="none" stroke="black" points="402.5,-192 402.5,-144 "/>
<path fill="none" stroke="black" d="M402.5,-144C402.5,-138 408.5,-132 414.5,-132"/>
<text text-anchor="middle" x="470" y="-187.4" font-family="Times,serif" font-size="14.00">Question</text>
<polyline fill="none" stroke="black" points="402.5,-182 537.5,-182 "/>
<text text-anchor="start" x="410.5" y="-165.4" font-family="Times,serif" font-size="14.00">question :string</text>
<text text-anchor="start" x="410.5" y="-151.4" font-family="Times,serif" font-size="14.00">created_at :datetime</text>
<text text-anchor="start" x="410.5" y="-137.4" font-family="Times,serif" font-size="14.00">updated_at :datetime</text>
</g>
<!-- Question&#45;&gt;ProjectSchemaQuestion -->
<g id="edge6" class="edge"><title>Question&#45;&gt;ProjectSchemaQuestion</title>
<path fill="none" stroke="black" d="M470,-121.559C470,-110.615 470,-98.9788 470,-88.1391"/>
<polygon fill="black" stroke="black" points="470,-121.801 465.5,-131.801 470,-126.801 470,-131.801 470,-131.801 470,-131.801 470,-126.801 474.5,-131.801 470,-121.801 470,-121.801"/>
<ellipse fill="black" stroke="black" cx="470" cy="-84.0299" rx="4" ry="4"/>
</g>
</g>
</svg>
